<?xml version="1.0" encoding="UTF-8"?>
<svg id="Capa_2" data-name="Capa 2" xmlns="http://www.w3.org/2000/svg" viewBox="0 0 264.02 182.08">
  <defs>
    <style>
      .cls-1 {
        fill: #1d1d1b;
        stroke-width: 0px;
      }
    </style>
  </defs>
  <g id="Capa_1-2" data-name="Capa 1">
    <g>
      <path class="cls-1" d="M77.64,45.35c0,12.83-10.46,18.81-25.44,18.81h-22.39V.88h20.82c13.77,0,24.66,5.62,24.66,18.02,0,6.24-3.74,10.28-8.01,12.04,5.31,1.58,10.37,7.12,10.37,14.41ZM51.41,26.72c1.74,0,3.4-.18,4.79-.88,1.83-.79,3.05-2.72,3.05-5.45,0-4.66-3.31-6.68-7.67-6.68h-6.62s0,13.01,0,13.01h6.45ZM44.97,51.32h8.1c4.27,0,8.1-2.11,8.1-7.03s-3.66-7.12-7.75-7.12h-8.45s0,14.15,0,14.15Z"/>
      <path class="cls-1" d="M114.24,0h.78s31.19,64.16,31.19,64.16h-16.64s-4.45-9.67-4.45-9.67h-21.08s-4.36,9.67-4.36,9.67h-16.64S114.24,0,114.24,0ZM120.6,43.68c-2.18-5.01-4.7-11.25-5.92-15.12-.87,2.11-4.27,11.07-6.01,15.12h11.94Z"/>
      <path class="cls-1" d="M177.93.88c14.99,0,25.35,7.29,25.35,21.53,0,9.14-4.62,15.2-11.5,18.28l12.63,23.47h-16.64s-10.11-20.83-10.11-20.83h-6.97s0,20.83,0,20.83h-15.6V.88h22.83ZM170.7,14.41v16.08s8.01,0,8.01,0c4.79,0,8.45-2.28,8.45-8.09,0-5.54-3.75-8-8.54-8h-7.93Z"/>
      <path class="cls-1" d="M264.02,45.35c0,12.83-10.46,18.81-25.44,18.81h-22.39V.88h20.82c13.77,0,24.66,5.62,24.66,18.02,0,6.24-3.74,10.28-8.01,12.04,5.31,1.58,10.37,7.12,10.37,14.41ZM237.8,26.72c1.74,0,3.4-.18,4.79-.88,1.83-.79,3.05-2.72,3.05-5.45,0-4.66-3.31-6.68-7.67-6.68h-6.62s0,13.01,0,13.01h6.45ZM231.35,51.32h8.1c4.27,0,8.1-2.11,8.1-7.03,0-5.01-3.66-7.12-7.75-7.12h-8.45s0,14.15,0,14.15Z"/>
    </g>
    <g>
      <path class="cls-1" d="M1.14,132.3v-15.47c4.48,2.37,9.85,4.13,14.94,4.57,1.76.18,3.43.18,5.01.09,5.19-.35,8.09-1.76,8.09-4.4,0-3.34-3.96-5.01-11.69-7.91C6.86,105.14,0,100.75,0,89.14c0-11.6,9.58-19.17,24-19.17,6.33,0,12.66,1.23,16.88,2.99v14.86c-3.78-2.37-9.76-3.96-15.56-3.96-5.8,0-9.49,2.02-9.49,5.19,0,2.99,3.69,5.01,11.08,8,10.64,4.22,17.93,8.7,17.93,19.95,0,11.69-8.79,18.72-24.53,18.72-7.21,0-14.42-1.41-19.16-3.43Z"/>
      <path class="cls-1" d="M73.74,105.76l-4.13-3.43v32.17s-15.29,0-15.29,0v-64.17s.35,0,.35,0l30.86,28.04,30.86-28.04h.44s0,64.17,0,64.17h-15.47s0-32.17,0-32.17l-4.04,3.43c-3.96,3.78-7.82,7.56-11.78,11.25-3.95-3.69-7.82-7.47-11.78-11.25Z"/>
      <path class="cls-1" d="M152.91,69.98c19.52,0,33.49,14.68,33.49,32.88,0,18.37-13.89,32.88-33.49,32.88-19.52,0-33.49-14.51-33.49-32.88,0-18.11,13.98-32.88,33.49-32.88ZM152.91,121.05c10.29,0,17.23-8.35,17.23-18.2,0-9.76-6.94-18.2-17.23-18.2-10.28,0-17.32,8.44-17.32,18.2,0,9.85,7.03,18.2,17.32,18.2Z"/>
      <path class="cls-1" d="M204.1,99.08l21.8-27.87h18.81s-21.98,26.99-21.98,26.99l22.33,36.31h-17.84s-15.38-26.11-15.38-26.11l-7.74,9.14v16.97s-16.09,0-16.09,0v-63.29s16.09,0,16.09,0v27.87Z"/>
    </g>
    <g>
      <path class="cls-1" d="M131.09,146.29l1.91,4.62c.49,1.13.88,2.2,1.18,3.1.17-.28.6-1.37.88-1.99l.75-1.65,1.88-4.04h.17c1.22,2.61,2.78,5.73,3.49,7.68.34-.64,2.44-6.01,3.12-7.72h4.39l-7.28,15.62h-.19l-2.89-6.14-.73-1.58c-.24.51-.47,1.07-.73,1.58l-2.89,6.14h-.19l-7.25-15.62h4.39Z"/>
      <path class="cls-1" d="M151.03,161.69v-15.41h10.1v3.3h-6.18v2.74h5.29v3.12h-5.29v2.95h6.51v3.3h-10.42Z"/>
      <path class="cls-1" d="M176.17,157.11c0,3.12-2.57,4.58-6.25,4.58h-5.5v-15.41h5.11c3.38,0,6.06,1.37,6.06,4.39,0,1.52-.92,2.5-1.97,2.93,1.3.38,2.55,1.73,2.55,3.51ZM169.73,152.58c.43,0,.84-.04,1.18-.21.45-.19.75-.66.75-1.33,0-1.13-.81-1.63-1.88-1.63h-1.63v3.17h1.58ZM168.14,158.57h1.99c1.05,0,1.99-.51,1.99-1.71s-.9-1.73-1.9-1.73h-2.08v3.45Z"/>
      <path class="cls-1" d="M183.91,152.51h3.57v-3.62h3v3.62h3.59v2.95h-3.59v3.62h-3v-3.62h-3.57v-2.95Z"/>
      <path class="cls-1" d="M135.77,182.08c-4.99,0-8.37-3.51-8.37-8s3.42-8,8.22-8c2.27,0,3.92.54,4.94,1.03v3.57c-.98-.45-2.5-1.03-4.6-1.03-2.95,0-4.62,2.06-4.62,4.43s1.65,4.47,4.43,4.47c.56,0,1.18-.09,1.6-.19v-3.81h3.75v6.38c-1.45.73-3.47,1.16-5.35,1.16Z"/>
      <path class="cls-1" d="M150,166.38c3.68,0,6.23,1.78,6.23,5.24,0,2.22-1.13,3.7-2.82,4.45l3.1,5.71h-4.09l-2.48-5.07h-1.71v5.07h-3.83v-15.41h5.6ZM148.22,169.67v3.91h1.97c1.18,0,2.07-.56,2.07-1.97s-.92-1.95-2.1-1.95h-1.95Z"/>
      <path class="cls-1" d="M165.38,166.16h.19l7.66,15.62h-4.09l-1.09-2.35h-5.18l-1.07,2.35h-4.09l7.66-15.62ZM166.94,176.8c-.53-1.22-1.15-2.74-1.45-3.68-.21.51-1.05,2.7-1.48,3.68h2.93Z"/>
      <path class="cls-1" d="M179.33,176.88v4.9h-3.91v-15.41h5.13c3.7,0,6.27,1.75,6.27,5.24s-2.57,5.26-6.27,5.26h-1.22ZM179.33,169.67v3.91h1.41c1.2,0,2.12-.58,2.12-1.97s-.94-1.95-2.14-1.95h-1.39Z"/>
      <path class="cls-1" d="M199.01,181.78v-6.18h-5.69v6.18h-3.91v-15.41h3.91v5.95h5.69v-5.95h3.94v15.41h-3.94Z"/>
      <path class="cls-1" d="M206.78,181.78v-15.41h3.91v15.41h-3.91Z"/>
      <path class="cls-1" d="M226.27,170.68c-.88-.45-2.25-1.03-4.09-1.03-2.91,0-4.6,2.06-4.6,4.43s1.65,4.43,4.43,4.43c1.97,0,3.44-.56,4.36-1.03v3.61c-.94.49-2.7.99-4.71.99-4.62,0-8.02-3.51-8.02-8s3.4-8,8.19-8c2.06,0,3.49.54,4.43,1.03v3.57Z"/>
    </g>
  </g>
</svg>